<svg width="40" height="40" viewBox="0 0 40 40" fill="none" xmlns="http://www.w3.org/2000/svg">
<path fill-rule="evenodd" clip-rule="evenodd" d="M4.21169 5.87868C3.33301 6.75736 3.33301 8.17157 3.33301 11V29C3.33301 31.8284 3.33301 33.2426 4.21169 34.1213C5.09037 35 6.50458 35 9.33301 35H30.6663C33.4948 35 34.909 35 35.7877 34.1213C36.6663 33.2426 36.6663 31.8284 36.6663 29V11C36.6663 8.17157 36.6663 6.75736 35.7877 5.87868C34.909 5 33.4948 5 30.6663 5H9.33301C6.50458 5 5.09037 5 4.21169 5.87868ZM26.6663 14C27.2186 14 27.6663 14.4477 27.6663 15V28.3333C27.6663 28.8856 27.2186 29.3333 26.6663 29.3333C26.1141 29.3333 25.6663 28.8856 25.6663 28.3333V15C25.6663 14.4477 26.1141 14 26.6663 14ZM14.333 18.3333C14.333 17.781 13.8853 17.3333 13.333 17.3333C12.7807 17.3333 12.333 17.781 12.333 18.3333V28.3333C12.333 28.8856 12.7807 29.3333 13.333 29.3333C13.8853 29.3333 14.333 28.8856 14.333 28.3333V18.3333ZM20.9997 21.6667C20.9997 21.1144 20.552 20.6667 19.9997 20.6667C19.4474 20.6667 18.9997 21.1144 18.9997 21.6667V28.3333C18.9997 28.8856 19.4474 29.3333 19.9997 29.3333C20.552 29.3333 20.9997 28.8856 20.9997 28.3333V21.6667Z" fill="#00CDA6"/>
</svg>
