<svg width="40" height="40" viewBox="0 0 40 40" fill="none" xmlns="http://www.w3.org/2000/svg">
<path d="M6.66699 20C6.66699 15.9629 6.66699 13.9444 7.30286 12.3438C8.21768 10.0411 10.0414 8.21736 12.3441 7.30254C13.9447 6.66667 15.9633 6.66667 20.0003 6.66667V6.66667C24.0374 6.66667 26.0559 6.66667 27.6565 7.30254C29.9592 8.21736 31.783 10.0411 32.6978 12.3438C33.3337 13.9444 33.3337 15.9629 33.3337 20V29.3333C33.3337 31.219 33.3337 32.1618 32.7479 32.7475C32.1621 33.3333 31.2193 33.3333 29.3337 33.3333H20.0003C15.9633 33.3333 13.9447 33.3333 12.3441 32.6975C10.0414 31.7826 8.21768 29.9589 7.30286 27.6562C6.66699 26.0556 6.66699 24.0371 6.66699 20V20Z" stroke="#1C1F37" stroke-width="2"/>
<path d="M15 18.3333L25 18.3333" stroke="#1C1F37" stroke-width="2" stroke-linecap="round" stroke-linejoin="round"/>
<path d="M20 25H25" stroke="#1C1F37" stroke-width="2" stroke-linecap="round" stroke-linejoin="round"/>
</svg>
