<svg width="64" height="64" viewBox="0 0 64 64" fill="none" xmlns="http://www.w3.org/2000/svg">
<path d="M10.6665 13.3333H15.9998" stroke="#00CDA6" stroke-width="2.66667" stroke-linecap="round" stroke-linejoin="round"/>
<path d="M13.3335 10.6667V16" stroke="#00CDA6" stroke-width="2.66667" stroke-linecap="round" stroke-linejoin="round"/>
<path d="M30.6668 10.6667L29.3335 16" stroke="#00CDA6" stroke-width="2.66667" stroke-linecap="round" stroke-linejoin="round"/>
<path d="M48 13.3333H53.3333" stroke="#00CDA6" stroke-width="2.66667" stroke-linecap="round" stroke-linejoin="round"/>
<path d="M50.6665 10.6667V16" stroke="#00CDA6" stroke-width="2.66667" stroke-linecap="round" stroke-linejoin="round"/>
<path d="M40.0002 24L37.3335 26.6667" stroke="#00CDA6" stroke-width="2.66667" stroke-linecap="round" stroke-linejoin="round"/>
<path d="M48 34.6667L53.3333 33.3333" stroke="#00CDA6" stroke-width="2.66667" stroke-linecap="round" stroke-linejoin="round"/>
<path d="M48 50.6667H53.3333" stroke="#00CDA6" stroke-width="2.66667" stroke-linecap="round" stroke-linejoin="round"/>
<path d="M50.6665 48V53.3333" stroke="#00CDA6" stroke-width="2.66667" stroke-linecap="round" stroke-linejoin="round"/>
<path d="M37.3336 44.048L19.9522 26.6667L8.24556 52.2133C8.01908 52.7093 7.94959 53.2627 8.04642 53.7993C8.14324 54.3359 8.40175 54.83 8.7873 55.2156C9.17285 55.6012 9.66703 55.8597 10.2036 55.9565C10.7402 56.0533 11.2936 55.9838 11.7896 55.7573L37.3336 44.0507V44.048Z" stroke="#00CDA6" stroke-width="2.66667" stroke-linecap="round" stroke-linejoin="round"/>
</svg>
