<svg width="40" height="40" viewBox="0 0 40 40" fill="none" xmlns="http://www.w3.org/2000/svg">
<path d="M9.68428 23.9012L9.68428 23.9012C9.68361 23.9019 9.68294 23.9025 9.68227 23.9032C9.66982 23.9156 9.65702 23.9284 9.64391 23.9414C9.49174 24.0926 9.29912 24.2841 9.16224 24.5259C9.02535 24.7676 8.96029 25.0313 8.90888 25.2396C8.90421 25.2585 8.89966 25.277 8.89517 25.2949L7.56498 30.6157L8.53326 30.8577L7.56498 30.6157C7.56218 30.6269 7.55925 30.6385 7.55623 30.6505C7.51941 30.797 7.46841 30.9999 7.45084 31.1795C7.43062 31.3862 7.42394 31.8382 7.79271 32.207L8.49982 31.4999L7.79272 32.207C8.1615 32.5757 8.61345 32.5691 8.82015 32.5488C8.99975 32.5313 9.20264 32.4803 9.34912 32.4434C9.36114 32.4404 9.37278 32.4375 9.384 32.4347L14.7048 31.1045C14.7227 31.1 14.7412 31.0955 14.7601 31.0908C14.9684 31.0394 15.2321 30.9743 15.4738 30.8374L14.9811 29.9672L15.4738 30.8374C15.7156 30.7006 15.907 30.5079 16.0583 30.3558C16.072 30.342 16.0854 30.3285 16.0985 30.3154L29.2926 17.1213L29.331 17.0829C29.631 16.7831 29.9224 16.4917 30.1305 16.219C30.365 15.9116 30.5855 15.5137 30.5855 15C30.5855 14.4863 30.365 14.0884 30.1305 13.781C29.9224 13.5083 29.631 13.217 29.3311 12.9172L29.2926 12.8787L27.121 10.7071L27.0825 10.6686C26.7827 10.3687 26.4914 10.0772 26.2187 9.86919C25.9113 9.63466 25.5133 9.41421 24.9997 9.41421C24.486 9.41421 24.0881 9.63466 23.7807 9.86919C23.508 10.0772 23.2166 10.3687 22.9168 10.6686C22.904 10.6814 22.8912 10.6943 22.8784 10.7071L9.68428 23.9012Z" stroke="#1C1F37" stroke-width="2"/>
<path d="M20.833 12.5L25.833 9.16667L30.833 14.1667L27.4997 19.1667L20.833 12.5Z" fill="#1C1F37"/>
</svg>
