<svg width="40" height="40" viewBox="0 0 40 40" fill="none" xmlns="http://www.w3.org/2000/svg">
<path d="M6.66699 19C6.66699 17.1144 6.66699 16.1716 7.25278 15.5858C7.83857 15 8.78137 15 10.667 15H15.0101C15.8276 15 16.2364 15 16.6039 15.1522C16.9715 15.3045 17.2605 15.5935 17.8386 16.1716L20.4954 18.8284C21.0735 19.4065 21.3625 19.6955 21.7301 19.8478C22.0976 20 22.5063 20 23.3238 20H29.3337C31.2193 20 32.1621 20 32.7479 20.5858C33.3337 21.1716 33.3337 22.1144 33.3337 24V29.3333C33.3337 31.219 33.3337 32.1618 32.7479 32.7475C32.1621 33.3333 31.2193 33.3333 29.3337 33.3333H10.667C8.78137 33.3333 7.83857 33.3333 7.25278 32.7475C6.66699 32.1618 6.66699 31.2189 6.66699 29.3333V19Z" stroke="#1C1F37" stroke-width="2"/>
<path d="M30 20V10.6667C30 8.78105 30 7.83824 29.4142 7.25246C28.8284 6.66667 27.8856 6.66667 26 6.66667H14C12.1144 6.66667 11.1716 6.66667 10.5858 7.25246C10 7.83824 10 8.78105 10 10.6667V15" stroke="#1C1F37" stroke-width="2"/>
</svg>
