<svg width="40" height="40" viewBox="0 0 40 40" fill="none" xmlns="http://www.w3.org/2000/svg">
<path d="M34.4889 28.8823C35.0844 26.6599 35.1606 24.3303 34.7118 22.0736C34.2629 19.817 33.3009 17.6939 31.9003 15.8686C30.4997 14.0432 28.6979 12.5645 26.6343 11.5469C24.5708 10.5293 22.3008 10 20 10C17.6992 10 15.4292 10.5293 13.3657 11.5469C11.3021 12.5645 9.50035 14.0432 8.0997 15.8686C6.69905 17.6939 5.73709 19.817 5.28822 22.0736C4.83935 24.3303 4.91562 26.6599 5.51111 28.8823" stroke="#1C1F37" stroke-width="2" stroke-linecap="round"/>
<path d="M21.2762 25.9705C22.0887 27.1527 21.5173 28.9564 20.0001 29.999C18.4829 31.0416 16.5943 30.9284 15.7818 29.7462C14.8155 28.3399 11.2041 19.6774 9.53228 15.6149C9.32829 15.1193 9.93496 14.7024 10.3246 15.0705C13.5177 18.0875 20.3099 24.5642 21.2762 25.9705Z" stroke="#1C1F37" stroke-width="2"/>
<path d="M20 10V13.3333" stroke="#1C1F37" stroke-width="2" stroke-linecap="round"/>
<path d="M9.39355 14.3929L11.7506 16.7499" stroke="#1C1F37" stroke-width="2" stroke-linecap="round"/>
<path d="M30.6064 14.3929L28.2494 16.7499" stroke="#1C1F37" stroke-width="2" stroke-linecap="round"/>
<path d="M34.4893 28.8818L31.2695 28.0191" stroke="#1C1F37" stroke-width="2" stroke-linecap="round"/>
<path d="M5.51074 28.8818L8.7305 28.0191" stroke="#1C1F37" stroke-width="2" stroke-linecap="round"/>
</svg>
