<svg width="40" height="40" viewBox="0 0 40 40" fill="none" xmlns="http://www.w3.org/2000/svg">
<path d="M16.666 31.6667L15.9589 30.9596L15.2518 31.6667L15.9589 32.3738L16.666 31.6667ZM22.6256 24.2929L15.9589 30.9596L17.3731 32.3738L24.0398 25.7071L22.6256 24.2929ZM15.9589 32.3738L22.6256 39.0404L24.0398 37.6262L17.3731 30.9596L15.9589 32.3738Z" fill="#1C1F37"/>
<path d="M30.103 14.1667C31.1269 15.9402 31.666 17.9521 31.666 20C31.666 22.0479 31.1269 24.0598 30.103 25.8333C29.079 27.6069 27.6062 29.0797 25.8327 30.1036C24.0591 31.1276 22.0473 31.6667 19.9993 31.6667" stroke="#1C1F37" stroke-width="2" stroke-linecap="round"/>
<path d="M23.334 8.33333L24.0411 9.04044L24.7482 8.33333L24.0411 7.62623L23.334 8.33333ZM17.3744 15.7071L24.0411 9.04044L22.6269 7.62623L15.9602 14.2929L17.3744 15.7071ZM24.0411 7.62623L17.3744 0.959561L15.9602 2.37377L22.6269 9.04044L24.0411 7.62623Z" fill="#1C1F37"/>
<path d="M9.89702 25.8333C8.87306 24.0598 8.33398 22.0479 8.33398 20C8.33398 17.9521 8.87306 15.9402 9.89702 14.1667C10.921 12.3931 12.3938 10.9203 14.1673 9.89637C15.9409 8.87241 17.9527 8.33334 20.0007 8.33334" stroke="#1C1F37" stroke-width="2" stroke-linecap="round"/>
</svg>
