<svg width="40" height="40" viewBox="0 0 40 40" fill="none" xmlns="http://www.w3.org/2000/svg">
<path d="M4.41469 21.9445C3.88598 20.9941 3.62163 20.5188 3.62163 20C3.62163 19.4812 3.88598 19.0059 4.41469 18.0555L7.38457 12.7167L10.5232 7.47526C11.0819 6.54217 11.3613 6.07562 11.8107 5.8162C12.26 5.55678 12.8037 5.54811 13.8912 5.53076L19.9997 5.43334L26.1082 5.53076C27.1956 5.5481 27.7394 5.55678 28.1887 5.8162C28.638 6.07562 28.9174 6.54217 29.4762 7.47526L32.6148 12.7167L35.5847 18.0555C36.1134 19.0059 36.3777 19.4812 36.3777 20C36.3777 20.5188 36.1134 20.9941 35.5847 21.9445L32.6148 27.2833L29.4762 32.5247C28.9174 33.4578 28.638 33.9244 28.1887 34.1838C27.7394 34.4432 27.1956 34.4519 26.1082 34.4692L19.9997 34.5667L13.8912 34.4692C12.8037 34.4519 12.26 34.4432 11.8107 34.1838C11.3613 33.9244 11.0819 33.4578 10.5232 32.5247L7.38457 27.2833L4.41469 21.9445Z" stroke="#1C1F37" stroke-width="2"/>
<circle cx="20" cy="20" r="5" stroke="#1C1F37" stroke-width="2"/>
</svg>
